umbra-1.ufo
<glyph name="exclam" format="1">
  <advance width="291"/>
  <unicode hex="0021"/>
  <outline>
    <contour>
      <point x="232" y="432" type="line"/>
      <point x="202" y="712" type="line"/>
      <point x="362" y="712" type="line"/>
      <point x="332" y="432" type="line"/>
    </contour>
    <contour>
      <point x="282" y="184" type="line"/>
      <point x="177" y="289" type="line"/>
      <point x="282" y="395" type="line"/>
      <point x="388" y="289" type="line"/>
    </contour>
  </outline>
</glyph>
<glyph name="quotedbl" format="1">
  <advance width="390"/>
  <unicode hex="0022"/>
  <outline>
    <contour>
      <point x="212" y="502" type="line"/>
      <point x="182" y="712" type="line"/>
      <point x="312" y="712" type="line"/>
      <point x="282" y="502" type="line"/>
    </contour>
    <contour>
      <point x="382" y="502" type="line"/>
      <point x="352" y="712" type="line"/>
      <point x="482" y="712" type="line"/>
      <point x="452" y="502" type="line"/>
    </contour>
  </outline>
</glyph>
<glyph name="quotesingle" format="1">
  <advance width="220"/>
  <unicode hex="0027"/>
  <outline>
    <contour>
      <point x="182" y="452" type="line"/>
      <point x="182" y="712" type="line"/>
      <point x="312" y="712" type="line"/>
      <point x="312" y="572" type="line"/>
    </contour>
  </outline>
</glyph>
<glyph name="one" format="1">
  <advance width="230"/>
  <unicode hex="0031"/>
  <outline>
    <contour>
      <point x="182" y="212" type="line"/>
      <point x="182" y="662" type="line"/>
      <point x="322" y="742" type="line"/>
      <point x="322" y="212" type="line"/>
    </contour>
  </outline>
</glyph>
<glyph name="six" format="1">
  <advance width="474"/>
  <unicode hex="0036"/>
  <outline>
    <contour>
      <point x="312" y="374" type="curve" smooth="yes"/>
      <point x="312" y="346"/>
      <point x="331" y="317"/>
      <point x="379" y="317" type="curve" smooth="yes"/>
      <point x="427" y="317"/>
      <point x="446" y="346"/>
      <point x="446" y="374" type="curve" smooth="yes"/>
      <point x="446" y="402"/>
      <point x="427" y="431"/>
      <point x="379" y="431" type="curve" smooth="yes"/>
      <point x="331" y="431"/>
      <point x="312" y="402"/>
    </contour>
    <contour>
      <point x="576" y="374" type="curve" smooth="yes"/>
      <point x="576" y="267"/>
      <point x="501" y="202"/>
      <point x="384" y="202" type="curve" smooth="yes"/>
      <point x="227" y="202"/>
      <point x="172" y="327"/>
      <point x="172" y="444" type="curve" smooth="yes"/>
      <point x="172" y="571"/>
      <point x="248" y="722"/>
      <point x="385" y="722" type="curve" smooth="yes"/>
      <point x="462" y="722"/>
      <point x="532" y="687"/>
      <point x="572" y="640" type="curve"/>
      <point x="531" y="534" type="line"/>
      <point x="491" y="572"/>
      <point x="454" y="602"/>
      <point x="406" y="602" type="curve" smooth="yes"/>
      <point x="338" y="602"/>
      <point x="309" y="543"/>
      <point x="303" y="475" type="curve"/>
      <point x="333" y="512"/>
      <point x="379" y="526"/>
      <point x="414" y="526" type="curve" smooth="yes"/>
      <point x="481" y="526"/>
      <point x="576" y="481"/>
    </contour>
  </outline>
</glyph>
<glyph name="D" format="1">
  <advance width="555"/>
  <unicode hex="0044"/>
  <outline>
    <contour>
      <point x="182" y="212" type="curve"/>
      <point x="182" y="712" type="line"/>
      <point x="255" y="712"/>
      <point x="329" y="712"/>
      <point x="402" y="712" type="curve" smooth="yes"/>
      <point x="577" y="712"/>
      <point x="662" y="611"/>
      <point x="662" y="462" type="curve" smooth="yes"/>
      <point x="662" y="313"/>
      <point x="577" y="212"/>
      <point x="402" y="212" type="curve" smooth="yes"/>
      <point x="329" y="212"/>
      <point x="255" y="212"/>
    </contour>
    <contour>
      <point x="402" y="332" type="line" smooth="yes"/>
      <point x="464" y="332"/>
      <point x="517" y="369"/>
      <point x="517" y="462" type="curve" smooth="yes"/>
      <point x="517" y="555"/>
      <point x="464" y="592"/>
      <point x="402" y="592" type="curve" smooth="yes"/>
      <point x="322" y="592" type="line"/>
      <point x="322" y="332" type="line"/>
    </contour>
  </outline>
</glyph>
<glyph name="E" format="1">
  <advance width="455"/>
  <unicode hex="0045"/>
  <outline>
    <contour>
      <point x="182" y="212" type="curve"/>
      <point x="182" y="712" type="line"/>
      <point x="309" y="712"/>
      <point x="435" y="712"/>
      <point x="562" y="712" type="curve"/>
      <point x="562" y="597" type="line"/>
      <point x="322" y="597" type="line"/>
      <point x="322" y="522" type="line"/>
      <point x="532" y="522" type="line"/>
      <point x="532" y="407" type="line"/>
      <point x="322" y="407" type="line"/>
      <point x="322" y="332" type="line"/>
      <point x="562" y="332" type="line"/>
      <point x="562" y="212" type="line"/>
      <point x="435" y="212"/>
      <point x="309" y="212"/>
    </contour>
  </outline>
</glyph>
<glyph name="H" format="1">
  <advance width="560"/>
  <unicode hex="0048"/>
  <outline>
    <contour>
      <point x="182" y="212" type="line"/>
      <point x="182" y="712" type="line"/>
      <point x="322" y="712" type="line"/>
      <point x="322" y="522" type="line"/>
      <point x="512" y="522" type="line"/>
      <point x="512" y="712" type="line"/>
      <point x="652" y="712" type="line"/>
      <point x="652" y="212" type="line"/>
      <point x="512" y="212" type="line"/>
      <point x="512" y="402" type="line"/>
      <point x="322" y="402" type="line"/>
      <point x="322" y="212" type="line"/>
    </contour>
  </outline>
</glyph>
<glyph name="J" format="1">
  <advance width="319"/>
  <unicode hex="004A"/>
  <outline>
    <contour>
      <point x="271" y="222" type="curve" smooth="yes"/>
      <point x="271" y="712" type="line"/>
      <point x="411" y="712" type="line"/>
      <point x="411" y="182" type="line" smooth="yes"/>
      <point x="411" y="85"/>
      <point x="321" y="30"/>
      <point x="244" y="30" type="curve" smooth="yes"/>
      <point x="177" y="30"/>
      <point x="137" y="50"/>
      <point x="87" y="97" type="curve"/>
      <point x="137" y="202" type="line"/>
      <point x="177" y="164"/>
      <point x="206" y="150"/>
      <point x="224" y="150" type="curve" smooth="yes"/>
      <point x="252" y="150"/>
      <point x="271" y="164"/>
    </contour>
  </outline>
</glyph>
<glyph name="M" format="1">
  <advance width="690"/>
  <unicode hex="004D"/>
  <outline>
    <contour>
      <point x="182" y="212" type="line"/>
      <point x="182" y="712" type="line"/>
      <point x="322" y="712" type="line"/>
      <point x="482" y="442" type="line"/>
      <point x="642" y="712" type="line"/>
      <point x="782" y="712" type="line"/>
      <point x="782" y="212" type="line"/>
      <point x="642" y="212" type="line"/>
      <point x="642" y="472" type="line"/>
      <point x="482" y="202" type="line"/>
      <point x="322" y="472" type="line"/>
      <point x="322" y="212" type="line"/>
    </contour>
  </outline>
</glyph>
<glyph name="N" format="1">
  <advance width="590"/>
  <unicode hex="004E"/>
  <outline>
    <contour>
      <point x="182" y="212" type="line"/>
      <point x="182" y="712" type="line"/>
      <point x="352" y="712" type="line"/>
      <point x="542" y="395" type="line"/>
      <point x="542" y="712" type="line"/>
      <point x="682" y="712" type="line"/>
      <point x="682" y="212" type="line"/>
      <point x="512" y="212" type="line"/>
      <point x="322" y="529" type="line"/>
      <point x="322" y="212" type="line"/>
    </contour>
  </outline>
</glyph>
<glyph name="O" format="1">
  <advance width="610"/>
  <unicode hex="004F"/>
  <outline>
    <contour>
      <point x="167" y="462" type="curve" smooth="yes"/>
      <point x="167" y="611"/>
      <point x="267" y="732"/>
      <point x="442" y="732" type="curve" smooth="yes"/>
      <point x="617" y="732"/>
      <point x="717" y="611"/>
      <point x="717" y="462" type="curve" smooth="yes"/>
      <point x="717" y="313"/>
      <point x="617" y="192"/>
      <point x="442" y="192" type="curve" smooth="yes"/>
      <point x="267" y="192"/>
      <point x="167" y="313"/>
    </contour>
    <contour>
      <point x="312" y="462" type="curve" smooth="yes"/>
      <point x="312" y="369"/>
      <point x="380" y="317"/>
      <point x="442" y="317" type="curve" smooth="yes"/>
      <point x="504" y="317"/>
      <point x="572" y="369"/>
      <point x="572" y="462" type="curve" smooth="yes"/>
      <point x="572" y="555"/>
      <point x="504" y="607"/>
      <point x="442" y="607" type="curve" smooth="yes"/>
      <point x="380" y="607"/>
      <point x="312" y="555"/>
    </contour>
  </outline>
</glyph>
<glyph name="Q" format="1">
  <advance width="610"/>
  <unicode hex="0051"/>
  <outline>
    <contour>
      <point x="167" y="462" type="curve" smooth="yes"/>
      <point x="167" y="611"/>
      <point x="267" y="732"/>
      <point x="442" y="732" type="curve" smooth="yes"/>
      <point x="617" y="732"/>
      <point x="717" y="611"/>
      <point x="717" y="462" type="curve" smooth="yes"/>
      <point x="717" y="346"/>
      <point x="657" y="247"/>
      <point x="548" y="209" type="curve"/>
      <point x="702" y="62" type="line"/>
      <point x="502" y="62" type="line"/>
      <point x="388" y="196" type="line"/>
      <point x="247" y="218"/>
      <point x="167" y="329"/>
    </contour>
    <contour>
      <point x="312" y="462" type="curve" smooth="yes"/>
      <point x="312" y="369"/>
      <point x="380" y="317"/>
      <point x="442" y="317" type="curve" smooth="yes"/>
      <point x="504" y="317"/>
      <point x="572" y="369"/>
      <point x="572" y="462" type="curve" smooth="yes"/>
      <point x="572" y="555"/>
      <point x="504" y="607"/>
      <point x="442" y="607" type="curve" smooth="yes"/>
      <point x="380" y="607"/>
      <point x="312" y="555"/>
    </contour>
  </outline>
</glyph>
<glyph name="T" format="1">
  <advance width="480"/>
  <unicode hex="0054"/>
  <outline>
    <contour>
      <point x="157" y="592" type="line"/>
      <point x="157" y="712" type="line"/>
      <point x="597" y="712" type="line"/>
      <point x="597" y="592" type="line"/>
      <point x="447" y="592" type="line"/>
      <point x="447" y="212" type="line"/>
      <point x="307" y="212" type="line"/>
      <point x="307" y="592" type="line"/>
    </contour>
  </outline>
</glyph>
<glyph name="X" format="1">
  <advance width="620"/>
  <unicode hex="0058"/>
  <outline>
    <contour>
      <point x="737" y="212" type="line"/>
      <point x="567" y="212" type="line"/>
      <point x="447" y="366" type="line"/>
      <point x="327" y="212" type="line"/>
      <point x="157" y="212" type="line"/>
      <point x="362" y="475" type="line"/>
      <point x="177" y="712" type="line"/>
      <point x="347" y="712" type="line"/>
      <point x="447" y="584" type="line"/>
      <point x="547" y="712" type="line"/>
      <point x="717" y="712" type="line"/>
      <point x="532" y="475" type="line"/>
    </contour>
  </outline>
</glyph>
<glyph name="Z" format="1">
  <advance width="580"/>
  <unicode hex="005A"/>
  <outline>
    <contour>
      <point x="217" y="597" type="line"/>
      <point x="217" y="712" type="line"/>
      <point x="707" y="712" type="line"/>
      <point x="411" y="332" type="line"/>
      <point x="667" y="332" type="line"/>
      <point x="667" y="212" type="line"/>
      <point x="157" y="212" type="line"/>
      <point x="457" y="597" type="line"/>
    </contour>
  </outline>
</glyph>
<glyph name="a" format="1">
  <advance width="434"/>
  <unicode hex="0061"/>
  <outline>
    <contour>
      <point x="396" y="410" type="curve"/>
      <point x="396" y="424" type="line" smooth="yes"/>
      <point x="396" y="482"/>
      <point x="387" y="502"/>
      <point x="339" y="502" type="curve" smooth="yes"/>
      <point x="321" y="502"/>
      <point x="272" y="492"/>
      <point x="232" y="464" type="curve"/>
      <point x="182" y="534" type="line"/>
      <point x="242" y="571"/>
      <point x="312" y="607"/>
      <point x="389" y="607" type="curve" smooth="yes"/>
      <point x="476" y="607"/>
      <point x="531" y="551"/>
      <point x="531" y="454" type="curve" smooth="yes"/>
      <point x="531" y="212" type="line"/>
      <point x="396" y="212" type="line"/>
      <point x="396" y="252" type="line"/>
      <point x="370" y="224"/>
      <point x="331" y="202"/>
      <point x="279" y="202" type="curve" smooth="yes"/>
      <point x="222" y="202"/>
      <point x="157" y="227"/>
      <point x="157" y="324" type="curve" smooth="yes"/>
      <point x="157" y="401"/>
      <point x="217" y="437"/>
      <point x="294" y="437" type="curve" smooth="yes"/>
      <point x="336" y="437"/>
      <point x="370" y="425"/>
    </contour>
    <contour>
      <point x="396" y="345" type="line"/>
      <point x="386" y="353"/>
      <point x="373" y="363"/>
      <point x="344" y="363" type="curve" smooth="yes"/>
      <point x="316" y="363"/>
      <point x="302" y="341"/>
      <point x="302" y="323" type="curve" smooth="yes"/>
      <point x="302" y="305"/>
      <point x="311" y="278"/>
      <point x="339" y="278" type="curve" smooth="yes"/>
      <point x="363" y="278"/>
      <point x="383" y="290"/>
      <point x="396" y="305" type="curve"/>
    </contour>
  </outline>
</glyph>
<glyph name="b" format="1">
  <advance width="499"/>
  <unicode hex="0062"/>
  <outline>
    <contour>
      <point x="177" y="212" type="line"/>
      <point x="177" y="742" type="line"/>
      <point x="312" y="742" type="line"/>
      <point x="312" y="558" type="line"/>
      <point x="343" y="589"/>
      <point x="384" y="607"/>
      <point x="429" y="607" type="curve" smooth="yes"/>
      <point x="536" y="607"/>
      <point x="601" y="521"/>
      <point x="601" y="404" type="curve" smooth="yes"/>
      <point x="601" y="287"/>
      <point x="536" y="202"/>
      <point x="429" y="202" type="curve" smooth="yes"/>
      <point x="384" y="202"/>
      <point x="343" y="222"/>
      <point x="312" y="254" type="curve"/>
      <point x="312" y="212" type="line"/>
    </contour>
    <contour>
      <point x="312" y="345" type="line"/>
      <point x="331" y="321"/>
      <point x="360" y="307"/>
      <point x="389" y="307" type="curve" smooth="yes"/>
      <point x="437" y="307"/>
      <point x="466" y="346"/>
      <point x="466" y="404" type="curve" smooth="yes"/>
      <point x="466" y="462"/>
      <point x="437" y="502"/>
      <point x="389" y="502" type="curve" smooth="yes"/>
      <point x="360" y="502"/>
      <point x="331" y="487"/>
      <point x="312" y="463" type="curve"/>
    </contour>
  </outline>
</glyph>
<glyph name="d" format="1">
  <advance width="499"/>
  <unicode hex="0064"/>
  <outline>
    <contour>
      <point x="596" y="212" type="line"/>
      <point x="461" y="212" type="line"/>
      <point x="461" y="254" type="line"/>
      <point x="430" y="222"/>
      <point x="389" y="202"/>
      <point x="344" y="202" type="curve" smooth="yes"/>
      <point x="237" y="202"/>
      <point x="172" y="287"/>
      <point x="172" y="404" type="curve" smooth="yes"/>
      <point x="172" y="521"/>
      <point x="237" y="607"/>
      <point x="344" y="607" type="curve" smooth="yes"/>
      <point x="389" y="607"/>
      <point x="430" y="589"/>
      <point x="461" y="558" type="curve"/>
      <point x="461" y="742" type="line"/>
      <point x="596" y="742" type="line"/>
    </contour>
    <contour>
      <point x="461" y="463" type="line"/>
      <point x="442" y="487"/>
      <point x="413" y="502"/>
      <point x="384" y="502" type="curve" smooth="yes"/>
      <point x="336" y="502"/>
      <point x="307" y="462"/>
      <point x="307" y="404" type="curve" smooth="yes"/>
      <point x="307" y="346"/>
      <point x="336" y="307"/>
      <point x="384" y="307" type="curve" smooth="yes"/>
      <point x="413" y="307"/>
      <point x="442" y="321"/>
      <point x="461" y="345" type="curve"/>
    </contour>
  </outline>
</glyph>
<glyph name="e" format="1">
  <advance width="469"/>
  <unicode hex="0065"/>
  <outline>
    <contour>
      <point x="177" y="404" type="curve" smooth="yes"/>
      <point x="177" y="531"/>
      <point x="262" y="607"/>
      <point x="379" y="607" type="curve" smooth="yes"/>
      <point x="496" y="607"/>
      <point x="571" y="531"/>
      <point x="571" y="424" type="curve"/>
      <point x="329" y="335" type="line"/>
      <point x="345" y="315"/>
      <point x="368" y="302"/>
      <point x="399" y="302" type="curve" smooth="yes"/>
      <point x="442" y="302"/>
      <point x="469" y="326"/>
      <point x="491" y="360" type="curve"/>
      <point x="551" y="267" type="line"/>
      <point x="515" y="223"/>
      <point x="457" y="202"/>
      <point x="389" y="202" type="curve" smooth="yes"/>
      <point x="272" y="202"/>
      <point x="177" y="277"/>
    </contour>
    <contour>
      <point x="455" y="478" type="line"/>
      <point x="440" y="498"/>
      <point x="416" y="511"/>
      <point x="382" y="511" type="curve" smooth="yes"/>
      <point x="327" y="511"/>
      <point x="305" y="465"/>
      <point x="302" y="420" type="curve"/>
    </contour>
  </outline>
</glyph>
<glyph name="l" format="1">
  <advance width="215"/>
  <unicode hex="006C"/>
  <outline>
    <contour>
      <point x="177" y="212" type="line"/>
      <point x="177" y="742" type="line"/>
      <point x="312" y="742" type="line"/>
      <point x="312" y="212" type="line"/>
    </contour>
  </outline>
</glyph>
<glyph name="o" format="1">
  <advance width="474"/>
  <unicode hex="006F"/>
  <outline>
    <contour>
      <point x="302" y="404" type="curve" smooth="yes"/>
      <point x="302" y="356"/>
      <point x="326" y="317"/>
      <point x="374" y="317" type="curve" smooth="yes"/>
      <point x="422" y="317"/>
      <point x="446" y="356"/>
      <point x="446" y="404" type="curve" smooth="yes"/>
      <point x="446" y="452"/>
      <point x="422" y="492"/>
      <point x="374" y="492" type="curve" smooth="yes"/>
      <point x="326" y="492"/>
      <point x="302" y="452"/>
    </contour>
    <contour>
      <point x="172" y="404" type="curve" smooth="yes"/>
      <point x="172" y="531"/>
      <point x="257" y="607"/>
      <point x="374" y="607" type="curve" smooth="yes"/>
      <point x="491" y="607"/>
      <point x="576" y="531"/>
      <point x="576" y="404" type="curve" smooth="yes"/>
      <point x="576" y="277"/>
      <point x="491" y="202"/>
      <point x="374" y="202" type="curve" smooth="yes"/>
      <point x="257" y="202"/>
      <point x="172" y="287"/>
    </contour>
  </outline>
</glyph>
<glyph name="v" format="1">
  <advance width="465"/>
  <unicode hex="0076"/>
  <outline>
    <contour>
      <point x="297" y="212" type="line"/>
      <point x="147" y="597" type="line"/>
      <point x="292" y="597" type="line"/>
      <point x="373" y="313" type="line"/>
      <point x="447" y="597" type="line"/>
      <point x="592" y="597" type="line"/>
      <point x="452" y="212" type="line"/>
    </contour>
  </outline>
</glyph>
<glyph name="x" format="1">
  <advance width="465"/>
  <unicode hex="0078"/>
  <outline>
    <contour>
      <point x="369" y="510" type="line"/>
      <point x="437" y="597" type="line"/>
      <point x="592" y="597" type="line"/>
      <point x="447" y="411" type="line"/>
      <point x="602" y="212" type="line"/>
      <point x="447" y="212" type="line"/>
      <point x="369" y="311" type="line"/>
      <point x="292" y="212" type="line"/>
      <point x="137" y="212" type="line"/>
      <point x="292" y="411" type="line"/>
      <point x="147" y="597" type="line"/>
      <point x="302" y="597" type="line"/>
    </contour>
  </outline>
</glyph>
<glyph name="z" format="1">
  <advance width="425"/>
  <unicode hex="007A"/>
  <outline>
    <contour>
      <point x="192" y="467" type="line"/>
      <point x="192" y="597" type="line"/>
      <point x="312" y="597"/>
      <point x="432" y="597"/>
      <point x="552" y="597" type="curve"/>
      <point x="373" y="342" type="line"/>
      <point x="527" y="342" type="line"/>
      <point x="527" y="212" type="line"/>
      <point x="400" y="212"/>
      <point x="274" y="212"/>
      <point x="147" y="212" type="curve"/>
      <point x="326" y="467" type="line"/>
    </contour>
  </outline>
</glyph>
<glyph name="quoteright" format="1">
  <advance width="220"/>
  <unicode hex="2019"/>
  <outline>
    <contour>
      <point x="182" y="452" type="line"/>
      <point x="182" y="712" type="line"/>
      <point x="312" y="712" type="line"/>
      <point x="312" y="572" type="line"/>
    </contour>
  </outline>
</glyph>
<glyph name="quotedblleft" format="1">
  <advance width="430"/>
  <unicode hex="201C"/>
  <outline>
    <contour>
      <point x="522" y="752" type="line"/>
      <point x="522" y="492" type="line"/>
      <point x="392" y="492" type="line"/>
      <point x="392" y="632" type="line"/>
    </contour>
    <contour>
      <point x="312" y="752" type="line"/>
      <point x="312" y="492" type="line"/>
      <point x="182" y="492" type="line"/>
      <point x="182" y="632" type="line"/>
    </contour>
  </outline>
</glyph>
